# xmcd CD database file
#
# Track frame offsets:
#	170
#	36905
#	62705
#	90295
#	116922
#	156392
#	183255
#	213317
#	239195
#
# Disc length: 3510 seconds
#
# Revision: 1
# Processed by: cddbd v1.5.1PL0 Copyright (c) Steve Scherf et al.
# Submitted via: CDex 1.51
#
DISCID=7e0db409
DTITLE=Joe Bonner Trio - Parade
DYEAR=1987
DGENRE=Jazz
TTITLE0=Change It
TTITLE1=Au Privave
TTITLE2=Sunny
TTITLE3=Hurry up and Wait
TTITLE4=Parade
TTITLE5=Blues for B
TTITLE6=Wild is the Wind
TTITLE7=Hurry Up and Wait, take 1
TTITLE8=Au Privave
EXTD=YEAR: 1987
EXTT0=
EXTT1=
EXTT2=
EXTT3=
EXTT4=
EXTT5=
EXTT6=
EXTT7=
EXTT8=
PLAYORDER=
